<svg version="1" xmlns="http://www.w3.org/2000/svg" width="1333.333" height="1333.333" viewBox="0 0 1000.000000 1000.000000"><path d="M693.7 198.6c-.1.1-5.8.4-12.7.8-6.9.3-13.6.8-15 1-1.4.3-5.2.7-8.5 1-5.3.5-9.4 1.1-19.5 3-7.5 1.4-13.8 2.7-17.4 3.7-2.3.6-4.8 1.2-5.6 1.4-7.5 1.5-24.8 7.2-39 13-53.8 21.9-98.2 58-129.7 105.3-9.8 14.7-23.2 41.1-28.7 56.2-2.1 5.8-4.2 11.4-4.7 12.5-1.6 4-8.6 30.9-9.4 36.8-.4 2.3-1 6-1.5 8.2-.5 2.2-1.2 6.7-1.5 10-.4 3.3-.8 7.1-1.1 8.5-2.5 14.5-2.4 58 .1 78 2.4 19 3.3 23.9 7.6 41.3 6.7 27.1 17.9 54.5 32.6 79.7 5.1 8.6 13 20.7 14.3 22 .3.3 1.7 2.1 3 4s2.7 3.7 3 4c.3.3 1.3 1.5 2.1 2.6 1.9 2.8 13.6 15.9 19.9 22.2 43.7 43.9 109.4 75 175 82.8 1.9.2 4.9.6 6.5.9 15.6 2.4 61.9 2.4 79 0 49.3-6.9 78.9-16.6 118-38.4 13.3-7.5 36.5-24.5 47.9-35.1 5.7-5.3 17.8-17.8 22.8-23.5 6.6-7.5 17.8-22.7 17.3-23.5-.4-.6-36.6-26.9-44.1-32-2.1-1.4-23-16.4-33.8-24.2-2.8-2.1-7.6-5.5-10.7-7.7l-5.6-3.9-5.9 8.1c-8.1 11.2-27.9 30.8-39.4 38.9-34.7 24.5-76.2 35.1-124.2 31.5-14.9-1.2-29.7-4-31.3-6-.5-.7-2.1-1.2-3.5-1.2-10.8.3-40.1-13-58-26.3-27.8-20.7-47.5-46.3-59.9-77.5-3.7-9.2-8.5-26.7-7.6-27.5.4-.4 29.1-.8 63.8-.8 34.8-.1 63.7-.2 64.3-.3.6 0 6.7-7.3 13.5-16.2 6.8-8.8 16.1-20.8 20.7-26.6 4.5-5.8 8.2-11.1 8.2-11.7 0-.9-6.9-10.1-19.3-25.8-1.2-1.5-6.7-8.6-12.2-15.8l-10-13h-14c-7.7 0-36.4-.1-63.7-.1h-49.7l1.6-5.2c10.9-37 37.3-72.2 70.5-94.6 11.1-7.5 26.9-15.2 39.4-19.3 14.5-4.8 17.1-5.5 28.9-7.4 2.2-.3 4.2-.7 4.5-.9 1.2-.8 19.4-1.9 30.5-1.9 38.8 0 69.6 8.7 99.5 28.1 19 12.4 37.3 30.3 48.8 47.6 1.7 2.5 3 3.6 4.1 3.2.8-.3 15.9-9.4 33.5-20.2 17.7-10.8 39.6-24.2 48.8-29.8l16.7-10.2-6.8-10.4c-17.3-26.7-40.5-50.1-67.8-68.5-4.8-3.2-9.7-6.4-10.8-7-1.1-.6-5.8-3.2-10.4-5.8-9.4-5.2-21-10.8-28.6-13.7-2.7-1.1-6.3-2.6-8-3.3-5.2-2.3-28.1-9.8-34.4-11.1-33.1-7.3-50.1-9.4-80-9.9-6.7-.1-12.3-.1-12.4 0z"/><path d="M50.8 201.8l-5.8.3V790h493.5l22-.1-14-7.1c-7.7-3.9-16.4-8.6-19.3-10.4-2.9-1.9-5.5-3.4-5.9-3.4-1 0-23.3-15.9-31.3-22.4-17.1-13.8-38.4-36.8-52-56.1-3.5-5-6.5-9.2-6.8-9.5-.2-.3-60.5-.5-134-.5H163.5l-.3-66-.2-66 109.2.1c60.1 0 109.6-.1 109.9-.3.4-.1.3-2.2-.2-4.5-2.8-15.5-3.2-73.2-.4-87.6.1-.9.6-4 .9-6.7.4-2.8.9-6.2 1.2-7.8l.6-2.7h-18.9c-10.3 0-60.1 0-110.6-.1H163l.2-63.7.3-63.7h270.8l2.7-3.5c23.8-31 42.6-49.7 69-68.7 16-11.6 42.3-26.2 59.7-33.4 4.6-1.9 8.3-3.6 8.3-3.9 0-.5-513.3-.7-523.2-.2z"/></svg>