<?xml version="1.0" encoding="utf-8"?>
<!-- Generator: Adobe Illustrator 19.2.0, SVG Export Plug-In . SVG Version: 6.00 Build 0)  -->
<svg version="1.1" id="Laag_1" xmlns="http://www.w3.org/2000/svg" xmlns:xlink="http://www.w3.org/1999/xlink" x="0px" y="0px"
	 viewBox="0 0 96 120" style="enable-background:new 0 0 96 120;" xml:space="preserve">
<style type="text/css">
	.st0{fill:#283048;}
</style>
<g>
	<g>
		<path class="st0" d="M48,15.3C23.4,15.3,3.3,35.4,3.3,60s20,44.7,44.7,44.7s44.7-20,44.7-44.7S72.6,15.3,48,15.3z M24.9,91
			c4.8-8.2,13.7-13.5,23.3-13.5s18.4,5.1,23.2,13.3c-6.5,4.9-14.6,7.9-23.3,7.9C39.3,98.7,31.3,95.8,24.9,91z M75.9,86.8
			c-6-9.5-16.3-15.2-27.7-15.2c-11.3,0-21.9,6-27.8,15.4c-6.8-7-11-16.5-11-27C9.3,38.7,26.7,21.3,48,21.3S86.7,38.7,86.7,60
			C86.7,70.4,82.6,79.8,75.9,86.8z"/>
		<path class="st0" d="M48,33.7c-8.7,0-15.9,7.1-15.9,15.9c0,8.7,7.1,15.9,15.9,15.9s15.9-7.1,15.9-15.9S56.7,33.7,48,33.7z
			 M48,59.4c-5.4,0-9.9-4.4-9.9-9.9c0-5.4,4.4-9.9,9.9-9.9s9.9,4.4,9.9,9.9S53.4,59.4,48,59.4z"/>
	</g>
</g>
</svg>
