<?xml version="1.0" encoding="utf-8"?>
<!-- Generator: Adobe Illustrator 19.2.0, SVG Export Plug-In . SVG Version: 6.00 Build 0)  -->
<svg version="1.1"
	 id="Laag_1" xmlns:cc="http://creativecommons.org/ns#" xmlns:dc="http://purl.org/dc/elements/1.1/" xmlns:inkscape="http://www.inkscape.org/namespaces/inkscape" xmlns:rdf="http://www.w3.org/1999/02/22-rdf-syntax-ns#" xmlns:sodipodi="http://sodipodi.sourceforge.net/DTD/sodipodi-0.dtd" xmlns:svg="http://www.w3.org/2000/svg"
	 xmlns="http://www.w3.org/2000/svg" xmlns:xlink="http://www.w3.org/1999/xlink" x="0px" y="0px" viewBox="0 0 100 125"
	 style="enable-background:new 0 0 100 125;" xml:space="preserve">
<style type="text/css">
	.st0{fill:#283048;}
</style>
<g transform="translate(0,-952.36218)">
	<path class="st0" d="M8,974.9c-1.7,0-3,1.3-3,3s1.3,3,3,3h9.6l10.3,48.7c0.4,1.8,1.6,3.4,3.1,3.3h50c1.6,0,3-1.4,3-3s-1.5-3-3-3
		H33.5l-1.3-6H85c1.3,0,2.6-1,2.9-2.3l7-30c0.4-1.7-1.1-3.6-2.9-3.7H24.6l-1.6-7.6c-0.3-1.3-1.6-2.4-2.9-2.4H8z M25.8,990.9h62.4
		l-5.6,24H30.9L25.8,990.9z M41,1034.9c-5.5,0-10,4.5-10,10c0,5.5,4.5,10,10,10s10-4.5,10-10S46.5,1034.9,41,1034.9z M71,1034.9
		c-5.5,0-10,4.5-10,10c0,5.5,4.5,10,10,10s10-4.5,10-10S76.5,1034.9,71,1034.9z M41,1040.9c2.2,0,4,1.8,4,4s-1.8,4-4,4
		c-2.2,0-4-1.8-4-4S38.8,1040.9,41,1040.9z M71,1040.9c2.2,0,4,1.8,4,4s-1.8,4-4,4c-2.2,0-4-1.8-4-4S68.8,1040.9,71,1040.9z"/>
</g>
</svg>
